<svg width="512" height="512" viewBox="0 0 512 512" fill="none" xmlns="http://www.w3.org/2000/svg">
<path d="M477.518 44.8103C451.65 49.06 353.723 88.6003 137.914 182.093C73.0604 210.178 16.891 235.121 12.8261 237.708C-1.21629 246.577 -3.80305 256 5.43536 264.499C11.1632 269.858 47.7472 282.976 86.3637 293.508C112.046 300.529 138.838 300.714 153.25 293.878C158.793 291.291 207.017 260.065 260.415 224.405C354.277 161.768 375.71 148.096 380.145 148.096C383.286 148.096 387.905 153.454 387.905 157.149C387.905 162.138 370.167 180.43 319.911 227.915C259.122 284.824 235.287 308.289 228.82 316.974C220.321 328.429 222.168 340.624 233.993 351.525C241.569 358.546 385.873 455.55 397.328 461.462C408.969 467.375 425.783 469.407 434.282 465.897C442.227 462.571 450.172 451.115 454.422 436.518C461.997 411.02 496.179 207.221 508.004 116.685C512.993 78.9924 513.178 62.1785 509.298 54.603C504.863 45.9189 493.038 42.2236 477.518 44.8103Z" fill="#2E9389"/>
</svg>
